<svg width="140" height="140" viewBox="0 0 140 140" fill="none" xmlns="http://www.w3.org/2000/svg">
	<path d="M70.3013 8L113.603 33V83L70.3013 108L27 83V33L70.3013 8Z" fill="#D9D9D9" />
	<path d="M70.3013 8L113.603 33V83L70.3013 108L27 83V33L70.3013 8Z" fill="#4D4C4C" />
	<path d="M113.603 33L70.3013 8V108L113.603 83V33Z" fill="#6D6464" />
	<path d="M34.36 114.3H44.4V116.24H43.98C43.98 115.52 43.8467 115.1 43.58 114.98H40.3V125.18C40.42 125.447 40.84 125.58 41.56 125.58V126H37.2V125.58C37.92 125.58 38.34 125.447 38.46 125.18V114.98H35.18C34.9133 115.1 34.78 115.52 34.78 116.24H34.36V114.3Z" fill="#eee" />
	<path d="M45.6017 126V125.58C46.3217 125.58 46.7417 125.447 46.8617 125.18V115.12C46.7417 114.853 46.3217 114.72 45.6017 114.72V114.3H49.9617V114.72C49.2417 114.72 48.8217 114.853 48.7017 115.12V119.58H53.8217V115.12C53.7017 114.853 53.2817 114.72 52.5617 114.72V114.3H56.9217V114.72C56.2017 114.72 55.7817 114.853 55.6617 115.12V125.18C55.7817 125.447 56.2017 125.58 56.9217 125.58V126H52.5617V125.58C53.2817 125.58 53.7017 125.447 53.8217 125.18V120.26H48.7017V125.18C48.8217 125.447 49.2417 125.58 49.9617 125.58V126H45.6017Z" fill="#eee" />
	<path d="M58.6095 126V125.58C59.3295 125.58 59.7495 125.447 59.8695 125.18V115.12C59.7495 114.853 59.3295 114.72 58.6095 114.72V114.3H66.6695V116.24H66.2495C66.2495 115.52 66.1162 115.1 65.8495 114.98H61.7095V119.58H64.5095C64.7762 119.46 64.9095 119.04 64.9095 118.32H65.3295V121.52H64.9095C64.9095 120.8 64.7762 120.38 64.5095 120.26H61.7095V125.32H66.2695C66.6029 125.173 66.9029 124.753 67.1695 124.06H67.5695L67.0895 126H58.6095Z" fill="#eee" />
	<path d="M76.6509 120.2V125.32H78.3509C80.2176 125.32 81.1509 124.413 81.1509 122.6C81.1509 121.973 80.9176 121.42 80.4509 120.94C79.9843 120.447 79.2043 120.2 78.1109 120.2H76.6509ZM76.6509 114.98V119.62H77.4709C79.3376 119.62 80.2709 118.773 80.2709 117.08C80.2709 115.68 79.2576 114.98 77.2309 114.98H76.6509ZM73.5509 126V125.58C74.2709 125.58 74.6909 125.447 74.8109 125.18V115.12C74.6909 114.853 74.2709 114.72 73.5509 114.72V114.3H77.2309C78.8976 114.3 80.1509 114.573 80.9909 115.12C81.8443 115.667 82.2709 116.313 82.2709 117.06C82.2709 118.42 81.5643 119.34 80.1509 119.82C81.1509 120.047 81.8976 120.42 82.3909 120.94C82.8976 121.447 83.1509 121.993 83.1509 122.58C83.1509 123.593 82.7443 124.42 81.9309 125.06C81.1309 125.687 79.9376 126 78.3509 126H73.5509Z" fill="#eee" />
	<path d="M86.7433 120C86.7433 120.88 86.8633 121.727 87.1033 122.54C87.3566 123.34 87.7633 124.04 88.3233 124.64C88.8966 125.227 89.5766 125.52 90.3633 125.52C91.1499 125.52 91.8099 125.24 92.3433 124.68C92.8899 124.12 93.27 123.467 93.4833 122.72C93.71 121.96 93.8233 121.16 93.8233 120.32C93.8233 119.453 93.6966 118.613 93.4433 117.8C93.1899 116.973 92.7766 116.267 92.2033 115.68C91.6433 115.08 90.9766 114.78 90.2033 114.78C89.6033 114.78 89.0699 114.94 88.6033 115.26C88.1499 115.58 87.7899 116.007 87.5233 116.54C87.2699 117.06 87.0766 117.613 86.9433 118.2C86.8099 118.787 86.7433 119.387 86.7433 120ZM84.7433 120.16C84.7433 118.493 85.2633 117.067 86.3033 115.88C87.3433 114.693 88.6699 114.1 90.2833 114.1C91.8966 114.1 93.2233 114.693 94.2633 115.88C95.3033 117.067 95.8233 118.493 95.8233 120.16C95.8233 121.827 95.2966 123.253 94.2433 124.44C93.2033 125.613 91.8833 126.2 90.2833 126.2C88.6566 126.2 87.3233 125.613 86.2833 124.44C85.2566 123.267 84.7433 121.84 84.7433 120.16Z" fill="#eee" />
	<path d="M100.844 114.3V114.72C100.217 114.72 99.8304 114.8 99.6838 114.96L101.864 118.78L104.244 115.04C104.11 114.827 103.704 114.72 103.024 114.72V114.3H106.304V114.72C105.65 114.72 105.25 114.833 105.104 115.06L102.264 119.48L105.524 125.16C105.67 125.44 106.097 125.58 106.804 125.58V126H102.424V125.58C103.05 125.58 103.437 125.5 103.584 125.34L101.204 121.16L98.5638 125.26C98.6971 125.473 99.1038 125.58 99.7838 125.58V126H96.5037V125.58C97.1704 125.58 97.5971 125.433 97.7838 125.14L100.784 120.46L97.7438 115.12C97.5971 114.853 97.1704 114.72 96.4637 114.72V114.3H100.844Z" fill="#eee" />
</svg>
